<svg id="visual" viewBox="0 0 900 20" width="900" height="20" xmlns="http://www.w3.org/2000/svg" xmlns:xlink="http://www.w3.org/1999/xlink" version="1.1"><path d="M0 6L6.5 5.3C13 4.7 26 3.3 39 3.3C52 3.3 65 4.7 78 5.2C91 5.7 104 5.3 117.2 5.3C130.3 5.3 143.7 5.7 156.8 5.2C170 4.7 183 3.3 196 3.5C209 3.7 222 5.3 235 6.2C248 7 261 7 274 7C287 7 300 7 313 7C326 7 339 7 352 6.3C365 5.7 378 4.3 391 3.5C404 2.7 417 2.3 430.2 2.5C443.3 2.7 456.7 3.3 469.8 3.8C483 4.3 496 4.7 509 4.8C522 5 535 5 548 4.5C561 4 574 3 587 3C600 3 613 4 626 3.7C639 3.3 652 1.7 665 1.2C678 0.7 691 1.3 704 2.5C717 3.7 730 5.3 743.2 6.2C756.3 7 769.7 7 782.8 6.5C796 6 809 5 822 4.3C835 3.7 848 3.3 861 3.2C874 3 887 3 893.5 3L900 3L900 0L893.5 0C887 0 874 0 861 0C848 0 835 0 822 0C809 0 796 0 782.8 0C769.7 0 756.3 0 743.2 0C730 0 717 0 704 0C691 0 678 0 665 0C652 0 639 0 626 0C613 0 600 0 587 0C574 0 561 0 548 0C535 0 522 0 509 0C496 0 483 0 469.8 0C456.7 0 443.3 0 430.2 0C417 0 404 0 391 0C378 0 365 0 352 0C339 0 326 0 313 0C300 0 287 0 274 0C261 0 248 0 235 0C222 0 209 0 196 0C183 0 170 0 156.8 0C143.7 0 130.3 0 117.2 0C104 0 91 0 78 0C65 0 52 0 39 0C26 0 13 0 6.5 0L0 0Z" fill="#ab4a8f"></path><path d="M0 10L6.5 9.3C13 8.7 26 7.3 39 6.8C52 6.3 65 6.7 78 6.8C91 7 104 7 117.2 7.2C130.3 7.3 143.7 7.7 156.8 7.8C170 8 183 8 196 8C209 8 222 8 235 8.7C248 9.3 261 10.7 274 11.2C287 11.7 300 11.3 313 10.8C326 10.3 339 9.7 352 9C365 8.3 378 7.7 391 6.7C404 5.7 417 4.3 430.2 4C443.3 3.7 456.7 4.3 469.8 5C483 5.7 496 6.3 509 6.7C522 7 535 7 548 7.2C561 7.3 574 7.7 587 8C600 8.3 613 8.7 626 8.8C639 9 652 9 665 9C678 9 691 9 704 9C717 9 730 9 743.2 9.7C756.3 10.3 769.7 11.7 782.8 12C796 12.3 809 11.7 822 10.3C835 9 848 7 861 5.8C874 4.7 887 4.3 893.5 4.2L900 4L900 1L893.5 1C887 1 874 1 861 1.2C848 1.3 835 1.7 822 2.3C809 3 796 4 782.8 4.5C769.7 5 756.3 5 743.2 4.2C730 3.3 717 1.7 704 0.8C691 0 678 0 665 0.5C652 1 639 2 626 2C613 2 600 1 587 1C574 1 561 2 548 2.5C535 3 522 3 509 2.8C496 2.7 483 2.3 469.8 1.8C456.7 1.3 443.3 0.7 430.2 0.5C417 0.3 404 0.7 391 1.5C378 2.3 365 3.7 352 4.3C339 5 326 5 313 5C300 5 287 5 274 5C261 5 248 5 235 4.2C222 3.3 209 1.7 196 1.5C183 1.3 170 2.7 156.8 3.2C143.7 3.7 130.3 3.3 117.2 3.3C104 3.3 91 3.7 78 3.2C65 2.7 52 1.3 39 1.3C26 1.3 13 2.7 6.5 3.3L0 4Z" fill="#ea8dcf"></path><path d="M0 12L6.5 12.2C13 12.3 26 12.7 39 12.5C52 12.3 65 11.7 78 12.7C91 13.7 104 16.3 117.2 17.8C130.3 19.3 143.7 19.7 156.8 19C170 18.3 183 16.7 196 16.7C209 16.7 222 18.3 235 18C248 17.7 261 15.3 274 14.7C287 14 300 15 313 14.5C326 14 339 12 352 11C365 10 378 10 391 9.5C404 9 417 8 430.2 7.3C443.3 6.7 456.7 6.3 469.8 7.2C483 8 496 10 509 11.3C522 12.7 535 13.3 548 14.5C561 15.7 574 17.3 587 17C600 16.7 613 14.3 626 14.5C639 14.7 652 17.3 665 18.5C678 19.7 691 19.3 704 19.3C717 19.3 730 19.7 743.2 18.7C756.3 17.7 769.7 15.3 782.8 15C796 14.7 809 16.3 822 15.8C835 15.3 848 12.7 861 10.8C874 9 887 8 893.5 7.5L900 7L900 2L893.5 2.2C887 2.3 874 2.7 861 3.8C848 5 835 7 822 8.3C809 9.7 796 10.3 782.8 10C769.7 9.7 756.3 8.3 743.2 7.7C730 7 717 7 704 7C691 7 678 7 665 7C652 7 639 7 626 6.8C613 6.7 600 6.3 587 6C574 5.7 561 5.3 548 5.2C535 5 522 5 509 4.7C496 4.3 483 3.7 469.8 3C456.7 2.3 443.3 1.7 430.2 2C417 2.3 404 3.7 391 4.7C378 5.7 365 6.3 352 7C339 7.7 326 8.3 313 8.8C300 9.3 287 9.7 274 9.2C261 8.7 248 7.3 235 6.7C222 6 209 6 196 6C183 6 170 6 156.8 5.8C143.7 5.7 130.3 5.3 117.2 5.2C104 5 91 5 78 4.8C65 4.7 52 4.3 39 4.8C26 5.3 13 6.7 6.5 7.3L0 8Z" fill="#ea8dcf"></path><path d="M0 21L6.5 21C13 21 26 21 39 21C52 21 65 21 78 21C91 21 104 21 117.2 21C130.3 21 143.7 21 156.8 21C170 21 183 21 196 21C209 21 222 21 235 21C248 21 261 21 274 21C287 21 300 21 313 21C326 21 339 21 352 21C365 21 378 21 391 21C404 21 417 21 430.2 21C443.3 21 456.7 21 469.8 21C483 21 496 21 509 21C522 21 535 21 548 21C561 21 574 21 587 21C600 21 613 21 626 21C639 21 652 21 665 21C678 21 691 21 704 21C717 21 730 21 743.2 21C756.3 21 769.7 21 782.8 21C796 21 809 21 822 21C835 21 848 21 861 21C874 21 887 21 893.5 21L900 21L900 5L893.5 5.5C887 6 874 7 861 8.8C848 10.7 835 13.3 822 13.8C809 14.3 796 12.7 782.8 13C769.7 13.3 756.3 15.7 743.2 16.7C730 17.7 717 17.3 704 17.3C691 17.3 678 17.7 665 16.5C652 15.3 639 12.7 626 12.5C613 12.3 600 14.7 587 15C574 15.3 561 13.7 548 12.5C535 11.3 522 10.7 509 9.3C496 8 483 6 469.8 5.2C456.7 4.3 443.3 4.7 430.2 5.3C417 6 404 7 391 7.5C378 8 365 8 352 9C339 10 326 12 313 12.5C300 13 287 12 274 12.7C261 13.3 248 15.7 235 16C222 16.3 209 14.7 196 14.7C183 14.7 170 16.3 156.8 17C143.7 17.7 130.3 17.3 117.2 15.8C104 14.3 91 11.7 78 10.7C65 9.7 52 10.3 39 10.5C26 10.7 13 10.3 6.5 10.2L0 10Z" fill="#ab4a8f"></path></svg>