<svg id="visual" viewBox="0 0 450 900" width="450" height="900" xmlns="http://www.w3.org/2000/svg" xmlns:xlink="http://www.w3.org/1999/xlink" version="1.1"><path d="M346 900L274 818L319 736L364 655L350 573L296 491L278 409L323 327L197 245L274 164L287 82L305 0L450 0L450 82L450 164L450 245L450 327L450 409L450 491L450 573L450 655L450 736L450 818L450 900Z" fill="#160e2d"></path><path d="M269 900L134 818L224 736L256 655L260 573L143 491L193 409L197 327L121 245L215 164L233 82L184 0L306 0L288 82L275 164L198 245L324 327L279 409L297 491L351 573L365 655L320 736L275 818L347 900Z" fill="#e36cc0"></path><path d="M0 900L0 818L0 736L0 655L0 573L0 491L0 409L0 327L0 245L0 164L0 82L0 0L185 0L234 82L216 164L122 245L198 327L194 409L144 491L261 573L257 655L225 736L135 818L270 900Z" fill="#160e2d"></path></svg>