<svg id="visual" viewBox="0 0 960 540" width="960" height="540" xmlns="http://www.w3.org/2000/svg" xmlns:xlink="http://www.w3.org/1999/xlink" version="1.1"><rect x="0" y="0" width="960" height="540" fill="#160326"></rect><path d="M0 96L80 79L160 82L240 77L320 79L400 77L480 79L560 88L640 75L720 95L800 71L880 69L960 97L960 0L880 0L800 0L720 0L640 0L560 0L480 0L400 0L320 0L240 0L160 0L80 0L0 0Z" fill="#74e2c6"></path><path d="M0 74L80 69L160 61L240 87L320 75L400 61L480 87L560 67L640 64L720 81L800 77L880 77L960 65L960 0L880 0L800 0L720 0L640 0L560 0L480 0L400 0L320 0L240 0L160 0L80 0L0 0Z" fill="#0c9daf"></path><path d="M0 66L80 58L160 72L240 64L320 66L400 55L480 64L560 59L640 73L720 73L800 56L880 61L960 69L960 0L880 0L800 0L720 0L640 0L560 0L480 0L400 0L320 0L240 0L160 0L80 0L0 0Z" fill="#0e587e"></path><path d="M0 67L80 50L160 66L240 61L320 64L400 49L480 62L560 66L640 54L720 66L800 54L880 46L960 60L960 0L880 0L800 0L720 0L640 0L560 0L480 0L400 0L320 0L240 0L160 0L80 0L0 0Z" fill="#191a3b"></path><path d="M0 49L80 53L160 41L240 38L320 38L400 46L480 54L560 40L640 41L720 53L800 53L880 56L960 54L960 0L880 0L800 0L720 0L640 0L560 0L480 0L400 0L320 0L240 0L160 0L80 0L0 0Z" fill="#160e2d"></path><path d="M0 34L80 30L160 33L240 38L320 29L400 45L480 40L560 32L640 40L720 31L800 36L880 36L960 45L960 0L880 0L800 0L720 0L640 0L560 0L480 0L400 0L320 0L240 0L160 0L80 0L0 0Z" fill="#191a3b"></path><path d="M0 31L80 22L160 26L240 21L320 35L400 26L480 33L560 25L640 36L720 36L800 29L880 26L960 30L960 0L880 0L800 0L720 0L640 0L560 0L480 0L400 0L320 0L240 0L160 0L80 0L0 0Z" fill="#0e587e"></path><path d="M0 23L80 26L160 19L240 17L320 22L400 24L480 17L560 13L640 19L720 17L800 16L880 13L960 17L960 0L880 0L800 0L720 0L640 0L560 0L480 0L400 0L320 0L240 0L160 0L80 0L0 0Z" fill="#0c9daf"></path><path d="M0 15L80 16L160 13L240 11L320 8L400 15L480 6L560 6L640 11L720 15L800 7L880 11L960 7L960 0L880 0L800 0L720 0L640 0L560 0L480 0L400 0L320 0L240 0L160 0L80 0L0 0Z" fill="#74e2c6"></path></svg>