<svg id="visual" viewBox="0 0 960 540" width="960" height="540" xmlns="http://www.w3.org/2000/svg" xmlns:xlink="http://www.w3.org/1999/xlink" version="1.1"><rect x="0" y="0" width="960" height="540" fill="#160326"></rect><defs><linearGradient id="grad1_0" x1="43.8%" y1="0%" x2="100%" y2="100%"><stop offset="14.444444444444446%" stop-color="#e36cc0" stop-opacity="1"></stop><stop offset="85.55555555555554%" stop-color="#e36cc0" stop-opacity="1"></stop></linearGradient></defs><defs><linearGradient id="grad1_1" x1="43.8%" y1="0%" x2="100%" y2="100%"><stop offset="14.444444444444446%" stop-color="#e36cc0" stop-opacity="1"></stop><stop offset="85.55555555555554%" stop-color="#bf5dac" stop-opacity="1"></stop></linearGradient></defs><defs><linearGradient id="grad1_2" x1="43.8%" y1="0%" x2="100%" y2="100%"><stop offset="14.444444444444446%" stop-color="#9e4e96" stop-opacity="1"></stop><stop offset="85.55555555555554%" stop-color="#bf5dac" stop-opacity="1"></stop></linearGradient></defs><defs><linearGradient id="grad1_3" x1="43.8%" y1="0%" x2="100%" y2="100%"><stop offset="14.444444444444446%" stop-color="#9e4e96" stop-opacity="1"></stop><stop offset="85.55555555555554%" stop-color="#7d4080" stop-opacity="1"></stop></linearGradient></defs><defs><linearGradient id="grad1_4" x1="43.8%" y1="0%" x2="100%" y2="100%"><stop offset="14.444444444444446%" stop-color="#5f316a" stop-opacity="1"></stop><stop offset="85.55555555555554%" stop-color="#7d4080" stop-opacity="1"></stop></linearGradient></defs><defs><linearGradient id="grad1_5" x1="43.8%" y1="0%" x2="100%" y2="100%"><stop offset="14.444444444444446%" stop-color="#5f316a" stop-opacity="1"></stop><stop offset="85.55555555555554%" stop-color="#442353" stop-opacity="1"></stop></linearGradient></defs><defs><linearGradient id="grad1_6" x1="43.8%" y1="0%" x2="100%" y2="100%"><stop offset="14.444444444444446%" stop-color="#2a153c" stop-opacity="1"></stop><stop offset="85.55555555555554%" stop-color="#442353" stop-opacity="1"></stop></linearGradient></defs><defs><linearGradient id="grad1_7" x1="43.8%" y1="0%" x2="100%" y2="100%"><stop offset="14.444444444444446%" stop-color="#2a153c" stop-opacity="1"></stop><stop offset="85.55555555555554%" stop-color="#160326" stop-opacity="1"></stop></linearGradient></defs><defs><linearGradient id="grad2_0" x1="0%" y1="0%" x2="56.3%" y2="100%"><stop offset="14.444444444444446%" stop-color="#e36cc0" stop-opacity="1"></stop><stop offset="85.55555555555554%" stop-color="#e36cc0" stop-opacity="1"></stop></linearGradient></defs><defs><linearGradient id="grad2_1" x1="0%" y1="0%" x2="56.3%" y2="100%"><stop offset="14.444444444444446%" stop-color="#bf5dac" stop-opacity="1"></stop><stop offset="85.55555555555554%" stop-color="#e36cc0" stop-opacity="1"></stop></linearGradient></defs><defs><linearGradient id="grad2_2" x1="0%" y1="0%" x2="56.3%" y2="100%"><stop offset="14.444444444444446%" stop-color="#bf5dac" stop-opacity="1"></stop><stop offset="85.55555555555554%" stop-color="#9e4e96" stop-opacity="1"></stop></linearGradient></defs><defs><linearGradient id="grad2_3" x1="0%" y1="0%" x2="56.3%" y2="100%"><stop offset="14.444444444444446%" stop-color="#7d4080" stop-opacity="1"></stop><stop offset="85.55555555555554%" stop-color="#9e4e96" stop-opacity="1"></stop></linearGradient></defs><defs><linearGradient id="grad2_4" x1="0%" y1="0%" x2="56.3%" y2="100%"><stop offset="14.444444444444446%" stop-color="#7d4080" stop-opacity="1"></stop><stop offset="85.55555555555554%" stop-color="#5f316a" stop-opacity="1"></stop></linearGradient></defs><defs><linearGradient id="grad2_5" x1="0%" y1="0%" x2="56.3%" y2="100%"><stop offset="14.444444444444446%" stop-color="#442353" stop-opacity="1"></stop><stop offset="85.55555555555554%" stop-color="#5f316a" stop-opacity="1"></stop></linearGradient></defs><defs><linearGradient id="grad2_6" x1="0%" y1="0%" x2="56.3%" y2="100%"><stop offset="14.444444444444446%" stop-color="#442353" stop-opacity="1"></stop><stop offset="85.55555555555554%" stop-color="#2a153c" stop-opacity="1"></stop></linearGradient></defs><defs><linearGradient id="grad2_7" x1="0%" y1="0%" x2="56.3%" y2="100%"><stop offset="14.444444444444446%" stop-color="#160326" stop-opacity="1"></stop><stop offset="85.55555555555554%" stop-color="#2a153c" stop-opacity="1"></stop></linearGradient></defs><g transform="translate(960, 0)"><path d="M0 162C-11 157.1 -21.9 152.2 -34.5 151.1C-47.1 150 -61.2 152.7 -70.3 146C-79.3 139.2 -83.2 123.1 -90.4 113.4C-97.6 103.6 -108 100.3 -118.1 94.1C-128.2 88 -137.9 79.2 -142.4 68.6C-146.8 57.9 -145.8 45.5 -148.2 33.8C-150.6 22.1 -156.3 11.1 -162 0L0 0Z" fill="#1f0f31"></path><path d="M0 141.8C-9.6 137.5 -19.2 133.2 -30.2 132.2C-41.2 131.3 -53.6 133.6 -61.5 127.7C-69.4 121.8 -72.8 107.7 -79.1 99.2C-85.4 90.7 -94.5 87.7 -103.3 82.4C-112.1 77 -120.7 69.3 -124.6 60C-128.4 50.7 -127.6 39.8 -129.7 29.6C-131.7 19.3 -136.7 9.7 -141.7 0L0 0Z" fill="#371c48"></path><path d="M0 121.5C-8.2 117.8 -16.4 114.2 -25.9 113.3C-35.3 112.5 -45.9 114.5 -52.7 109.5C-59.5 104.4 -62.4 92.3 -67.8 85C-73.2 77.7 -81 75.2 -88.5 70.6C-96.1 66 -103.5 59.4 -106.8 51.4C-110.1 43.4 -109.4 34.2 -111.1 25.4C-112.9 16.6 -117.2 8.3 -121.5 0L0 0Z" fill="#512a5e"></path><path d="M0 101.3C-6.9 98.2 -13.7 95.1 -21.6 94.4C-29.4 93.8 -38.3 95.4 -43.9 91.2C-49.6 87 -52 76.9 -56.5 70.9C-61 64.8 -67.5 62.7 -73.8 58.8C-80.1 55 -86.2 49.5 -89 42.8C-91.7 36.2 -91.1 28.5 -92.6 21.1C-94.1 13.8 -97.7 6.9 -101.2 0L0 0Z" fill="#6e3875"></path><path d="M0 81C-5.5 78.6 -11 76.1 -17.2 75.6C-23.5 75 -30.6 76.3 -35.1 73C-39.7 69.6 -41.6 61.6 -45.2 56.7C-48.8 51.8 -54 50.1 -59 47.1C-64.1 44 -69 39.6 -71.2 34.3C-73.4 29 -72.9 22.8 -74.1 16.9C-75.3 11.1 -78.1 5.5 -81 0L0 0Z" fill="#8d478c"></path><path d="M0 60.8C-4.1 58.9 -8.2 57.1 -12.9 56.7C-17.6 56.3 -23 57.3 -26.4 54.7C-29.8 52.2 -31.2 46.2 -33.9 42.5C-36.6 38.9 -40.5 37.6 -44.3 35.3C-48.1 33 -51.7 29.7 -53.4 25.7C-55 21.7 -54.7 17.1 -55.6 12.7C-56.5 8.3 -58.6 4.1 -60.7 0L0 0Z" fill="#ae56a1"></path><path d="M0 40.5C-2.7 39.3 -5.5 38.1 -8.6 37.8C-11.8 37.5 -15.3 38.2 -17.6 36.5C-19.8 34.8 -20.8 30.8 -22.6 28.3C-24.4 25.9 -27 25.1 -29.5 23.5C-32 22 -34.5 19.8 -35.6 17.1C-36.7 14.5 -36.5 11.4 -37 8.5C-37.6 5.5 -39.1 2.8 -40.5 0L0 0Z" fill="#d164b6"></path><path d="M0 20.3C-1.4 19.6 -2.7 19 -4.3 18.9C-5.9 18.8 -7.7 19.1 -8.8 18.2C-9.9 17.4 -10.4 15.4 -11.3 14.2C-12.2 13 -13.5 12.5 -14.8 11.8C-16 11 -17.2 9.9 -17.8 8.6C-18.3 7.2 -18.2 5.7 -18.5 4.2C-18.8 2.8 -19.5 1.4 -20.2 0L0 0Z" fill="#e36cc0"></path></g><g transform="translate(0, 540)"><path d="M0 -162C11.5 -159.3 23 -156.5 35.4 -155C47.8 -153.5 61.2 -153.2 70.3 -146C79.4 -138.7 84.3 -124.5 91.7 -114.9C99 -105.4 108.8 -100.5 116.5 -92.9C124.1 -85.3 129.6 -74.9 134.2 -64.6C138.9 -54.4 142.7 -44.3 147.2 -33.6C151.7 -22.9 156.9 -11.4 162 0L0 0Z" fill="#1f0f31"></path><path d="M0 -141.7C10 -139.4 20.1 -137 31 -135.6C41.8 -134.3 53.5 -134.1 61.5 -127.7C69.5 -121.4 73.8 -108.9 80.2 -100.6C86.6 -92.2 95.2 -88 101.9 -81.3C108.6 -74.6 113.4 -65.5 117.5 -56.6C121.5 -47.6 124.9 -38.8 128.8 -29.4C132.7 -20 137.2 -10 141.8 0L0 0Z" fill="#371c48"></path><path d="M0 -121.5C8.6 -119.4 17.2 -117.4 26.5 -116.3C35.9 -115.1 45.9 -114.9 52.7 -109.5C59.6 -104 63.2 -93.4 68.7 -86.2C74.3 -79 81.6 -75.4 87.4 -69.7C93.1 -64 97.2 -56.2 100.7 -48.5C104.2 -40.8 107 -33.3 110.4 -25.2C113.8 -17.1 117.6 -8.6 121.5 0L0 0Z" fill="#512a5e"></path><path d="M0 -101.2C7.2 -99.5 14.3 -97.8 22.1 -96.9C29.9 -95.9 38.2 -95.8 43.9 -91.2C49.6 -86.7 52.7 -77.8 57.3 -71.8C61.9 -65.9 68 -62.8 72.8 -58.1C77.6 -53.3 81 -46.8 83.9 -40.4C86.8 -34 89.2 -27.7 92 -21C94.8 -14.3 98 -7.1 101.3 0L0 0Z" fill="#6e3875"></path><path d="M0 -81C5.7 -79.6 11.5 -78.3 17.7 -77.5C23.9 -76.8 30.6 -76.6 35.1 -73C39.7 -69.3 42.1 -62.2 45.8 -57.5C49.5 -52.7 54.4 -50.3 58.2 -46.4C62.1 -42.6 64.8 -37.4 67.1 -32.3C69.4 -27.2 71.4 -22.2 73.6 -16.8C75.9 -11.4 78.4 -5.7 81 0L0 0Z" fill="#8d478c"></path><path d="M0 -60.7C4.3 -59.7 8.6 -58.7 13.3 -58.1C17.9 -57.6 22.9 -57.5 26.4 -54.7C29.8 -52 31.6 -46.7 34.4 -43.1C37.1 -39.5 40.8 -37.7 43.7 -34.8C46.6 -32 48.6 -28.1 50.3 -24.2C52.1 -20.4 53.5 -16.6 55.2 -12.6C56.9 -8.6 58.8 -4.3 60.8 0L0 0Z" fill="#ae56a1"></path><path d="M0 -40.5C2.9 -39.8 5.7 -39.1 8.8 -38.8C12 -38.4 15.3 -38.3 17.6 -36.5C19.9 -34.7 21.1 -31.1 22.9 -28.7C24.8 -26.3 27.2 -25.1 29.1 -23.2C31 -21.3 32.4 -18.7 33.6 -16.2C34.7 -13.6 35.7 -11.1 36.8 -8.4C37.9 -5.7 39.2 -2.9 40.5 0L0 0Z" fill="#d164b6"></path><path d="M0 -20.2C1.4 -19.9 2.9 -19.6 4.4 -19.4C6 -19.2 7.6 -19.2 8.8 -18.2C9.9 -17.3 10.5 -15.6 11.5 -14.4C12.4 -13.2 13.6 -12.6 14.6 -11.6C15.5 -10.7 16.2 -9.4 16.8 -8.1C17.4 -6.8 17.8 -5.5 18.4 -4.2C19 -2.9 19.6 -1.4 20.3 0L0 0Z" fill="#e36cc0"></path></g></svg>