<svg id="visual" viewBox="0 0 960 540" width="960" height="540" xmlns="http://www.w3.org/2000/svg" xmlns:xlink="http://www.w3.org/1999/xlink" version="1.1"><rect x="0" y="0" width="960" height="540" fill="#160326"></rect><defs><linearGradient id="grad1_0" x1="43.8%" y1="0%" x2="100%" y2="100%"><stop offset="14.444444444444446%" stop-color="#e36cc0" stop-opacity="1"></stop><stop offset="85.55555555555554%" stop-color="#e36cc0" stop-opacity="1"></stop></linearGradient></defs><defs><linearGradient id="grad1_1" x1="43.8%" y1="0%" x2="100%" y2="100%"><stop offset="14.444444444444446%" stop-color="#e36cc0" stop-opacity="1"></stop><stop offset="85.55555555555554%" stop-color="#93498f" stop-opacity="1"></stop></linearGradient></defs><defs><linearGradient id="grad1_2" x1="43.8%" y1="0%" x2="100%" y2="100%"><stop offset="14.444444444444446%" stop-color="#4d285b" stop-opacity="1"></stop><stop offset="85.55555555555554%" stop-color="#93498f" stop-opacity="1"></stop></linearGradient></defs><defs><linearGradient id="grad1_3" x1="43.8%" y1="0%" x2="100%" y2="100%"><stop offset="14.444444444444446%" stop-color="#4d285b" stop-opacity="1"></stop><stop offset="85.55555555555554%" stop-color="#160326" stop-opacity="1"></stop></linearGradient></defs><defs><linearGradient id="grad2_0" x1="0%" y1="0%" x2="56.3%" y2="100%"><stop offset="14.444444444444446%" stop-color="#e36cc0" stop-opacity="1"></stop><stop offset="85.55555555555554%" stop-color="#e36cc0" stop-opacity="1"></stop></linearGradient></defs><defs><linearGradient id="grad2_1" x1="0%" y1="0%" x2="56.3%" y2="100%"><stop offset="14.444444444444446%" stop-color="#93498f" stop-opacity="1"></stop><stop offset="85.55555555555554%" stop-color="#e36cc0" stop-opacity="1"></stop></linearGradient></defs><defs><linearGradient id="grad2_2" x1="0%" y1="0%" x2="56.3%" y2="100%"><stop offset="14.444444444444446%" stop-color="#93498f" stop-opacity="1"></stop><stop offset="85.55555555555554%" stop-color="#4d285b" stop-opacity="1"></stop></linearGradient></defs><defs><linearGradient id="grad2_3" x1="0%" y1="0%" x2="56.3%" y2="100%"><stop offset="14.444444444444446%" stop-color="#160326" stop-opacity="1"></stop><stop offset="85.55555555555554%" stop-color="#4d285b" stop-opacity="1"></stop></linearGradient></defs><g transform="translate(960, 0)"><path d="M0 54C-4.1 53.6 -8.3 53.3 -11.8 51.7C-15.3 50.1 -18.2 47.3 -22.1 45.9C-26 44.6 -30.9 44.7 -33.7 42.2C-36.4 39.8 -37.1 34.8 -39.1 31.2C-41.1 27.6 -44.5 25.3 -45.9 22.1C-47.4 18.9 -46.8 14.8 -47.8 10.9C-48.8 7.1 -51.4 3.5 -54 0L0 0Z" fill="#2e1840"></path><path d="M0 40.5C-3.1 40.2 -6.2 39.9 -8.8 38.8C-11.5 37.6 -13.7 35.5 -16.6 34.5C-19.5 33.4 -23.2 33.5 -25.3 31.7C-27.3 29.8 -27.8 26.1 -29.3 23.4C-30.8 20.7 -33.4 19 -34.5 16.6C-35.5 14.2 -35.1 11.1 -35.8 8.2C-36.6 5.3 -38.5 2.6 -40.5 0L0 0Z" fill="#6e3875"></path><path d="M0 27C-2.1 26.8 -4.1 26.6 -5.9 25.8C-7.7 25 -9.1 23.7 -11.1 23C-13 22.3 -15.5 22.3 -16.8 21.1C-18.2 19.9 -18.5 17.4 -19.5 15.6C-20.6 13.8 -22.3 12.7 -23 11.1C-23.7 9.5 -23.4 7.4 -23.9 5.5C-24.4 3.5 -25.7 1.8 -27 0L0 0Z" fill="#ba5ba8"></path><path d="M0 13.5C-1 13.4 -2.1 13.3 -2.9 12.9C-3.8 12.5 -4.6 11.8 -5.5 11.5C-6.5 11.1 -7.7 11.2 -8.4 10.6C-9.1 9.9 -9.3 8.7 -9.8 7.8C-10.3 6.9 -11.1 6.3 -11.5 5.5C-11.8 4.7 -11.7 3.7 -11.9 2.7C-12.2 1.8 -12.8 0.9 -13.5 0L0 0Z" fill="#e36cc0"></path></g><g transform="translate(0, 540)"><path d="M0 -54C3.4 -51 6.9 -47.9 10.7 -46.8C14.5 -45.7 18.6 -46.4 21.7 -45C24.8 -43.7 26.8 -40.2 30.6 -38.3C34.3 -36.5 39.6 -36.3 42.2 -33.7C44.8 -31.1 44.6 -26.1 45.9 -22.1C47.3 -18.2 50.1 -15.3 51.7 -11.8C53.3 -8.3 53.6 -4.1 54 0L0 0Z" fill="#2e1840"></path><path d="M0 -40.5C2.6 -38.2 5.2 -35.9 8 -35.1C10.9 -34.2 14 -34.8 16.3 -33.8C18.6 -32.8 20.1 -30.1 22.9 -28.7C25.7 -27.3 29.7 -27.2 31.7 -25.3C33.6 -23.3 33.5 -19.6 34.5 -16.6C35.4 -13.6 37.6 -11.5 38.8 -8.8C39.9 -6.2 40.2 -3.1 40.5 0L0 0Z" fill="#6e3875"></path><path d="M0 -27C1.7 -25.5 3.4 -24 5.3 -23.4C7.2 -22.8 9.3 -23.2 10.8 -22.5C12.4 -21.8 13.4 -20.1 15.3 -19.2C17.1 -18.2 19.8 -18.1 21.1 -16.8C22.4 -15.5 22.3 -13 23 -11.1C23.6 -9.1 25 -7.7 25.8 -5.9C26.6 -4.1 26.8 -2.1 27 0L0 0Z" fill="#ba5ba8"></path><path d="M0 -13.5C0.9 -12.7 1.7 -12 2.7 -11.7C3.6 -11.4 4.7 -11.6 5.4 -11.3C6.2 -10.9 6.7 -10 7.6 -9.6C8.6 -9.1 9.9 -9.1 10.6 -8.4C11.2 -7.8 11.2 -6.5 11.5 -5.5C11.8 -4.5 12.5 -3.8 12.9 -2.9C13.3 -2.1 13.4 -1 13.5 0L0 0Z" fill="#e36cc0"></path></g></svg>