<svg id="visual" viewBox="0 0 2000 1080" width="2000" height="1080" xmlns="http://www.w3.org/2000/svg" xmlns:xlink="http://www.w3.org/1999/xlink" version="1.1"><rect width="2000" height="1080" fill="#E32943"></rect><g><g transform="translate(509 787)"><path d="M10.5 6.1C7 12 -6.8 12 -10.3 6.1C-13.8 0.1 -6.9 -11.7 0 -11.7C7 -11.7 14 0.2 10.5 6.1Z" fill="#E3CC0D"></path></g><g transform="translate(1431 108)"><path d="M10.3 6.4C6.6 12.4 -7.8 12.6 -11.3 6.7C-14.8 0.8 -7.4 -11.1 -0.2 -11.2C7 -11.3 14 0.4 10.3 6.4Z" fill="#E3CC0D"></path></g><g transform="translate(716 600)"><path d="M11.1 6.2C7.6 12.5 -6.8 12.4 -10.5 6C-14.2 -0.5 -7.1 -13.2 0.1 -13.1C7.3 -13 14.7 -0.2 11.1 6.2Z" fill="#E3CC0D"></path></g><g transform="translate(825 840)"><path d="M9.7 5.3C6.3 11.5 -7.1 11.7 -10.4 5.6C-13.7 -0.6 -6.8 -13.1 -0.1 -13.1C6.6 -13.2 13.1 -0.9 9.7 5.3Z" fill="#E3CC0D"></path></g><g transform="translate(1919 97)"><path d="M10.3 6.3C6.7 12.3 -7.7 12.5 -11.2 6.6C-14.7 0.7 -7.3 -11.3 -0.2 -11.4C7 -11.5 14 0.3 10.3 6.3Z" fill="#E3CC0D"></path></g><g transform="translate(335 726)"><path d="M9.8 5.8C6.2 11.9 -7.7 12.2 -11.1 6.2C-14.4 0.3 -7.2 -11.9 -0.3 -12C6.7 -12.2 13.4 -0.3 9.8 5.8Z" fill="#E3CC0D"></path></g><g transform="translate(261 971)"><path d="M11.3 6.6C7.9 12.5 -6.4 12.2 -10.1 6.2C-13.8 0.1 -6.9 -11.7 0.2 -11.5C7.4 -11.4 14.8 0.7 11.3 6.6Z" fill="#E3CC0D"></path></g><g transform="translate(1215 219)"><path d="M10.7 5.7C7.4 11.9 -6.2 11.7 -9.7 5.4C-13.2 -0.9 -6.6 -13.3 0.2 -13.2C7 -13.1 14 -0.5 10.7 5.7Z" fill="#E3CC0D"></path></g><g transform="translate(445 944)"><path d="M10.7 6C7.2 12.1 -6.7 12 -10.3 5.8C-13.8 -0.4 -6.9 -12.7 0.1 -12.6C7.1 -12.6 14.1 -0.2 10.7 6Z" fill="#E3CC0D"></path></g><g transform="translate(589 147)"><path d="M10.3 6.3C6.6 12.3 -7.6 12.5 -11.1 6.5C-14.6 0.6 -7.3 -11.4 -0.2 -11.4C7 -11.5 13.9 0.3 10.3 6.3Z" fill="#E3CC0D"></path></g><g transform="translate(1494 224)"><path d="M10 5.7C6.5 11.8 -7.2 11.9 -10.6 6C-14 0 -7 -12.1 -0.1 -12.2C6.7 -12.3 13.4 -0.3 10 5.7Z" fill="#E3CC0D"></path></g><g transform="translate(84 593)"><path d="M10.9 5.9C7.7 12 -6.1 11.7 -9.6 5.4C-13.2 -0.9 -6.6 -13.2 0.3 -13.1C7.1 -12.9 14.2 -0.3 10.9 5.9Z" fill="#E3CC0D"></path></g><g transform="translate(1266 416)"><path d="M10.5 6.1C6.9 12.3 -7.4 12.4 -10.9 6.3C-14.5 0.1 -7.2 -12.2 -0.1 -12.3C7 -12.4 14.1 -0.1 10.5 6.1Z" fill="#E3CC0D"></path></g><g transform="translate(32 479)"><path d="M9.6 5.6C6.1 11.6 -7.5 11.9 -10.8 6C-14.1 0 -7 -12.1 -0.2 -12.2C6.6 -12.4 13.1 -0.5 9.6 5.6Z" fill="#E3CC0D"></path></g><g transform="translate(775 143)"><path d="M10.5 6.4C6.8 12.4 -7.6 12.5 -11.1 6.6C-14.6 0.6 -7.3 -11.4 -0.1 -11.5C7.1 -11.5 14.1 0.4 10.5 6.4Z" fill="#E3CC0D"></path></g><g transform="translate(452 17)"><path d="M11.4 6.5C7.9 12.6 -6.5 12.4 -10.2 6.1C-14 -0.3 -7 -12.6 0.2 -12.5C7.5 -12.3 14.9 0.3 11.4 6.5Z" fill="#E3CC0D"></path></g><g transform="translate(158 145)"><path d="M9.9 5.8C6.3 12 -7.7 12.2 -11.1 6.2C-14.4 0.2 -7.2 -12.1 -0.2 -12.3C6.7 -12.4 13.5 -0.4 9.9 5.8Z" fill="#E3CC0D"></path></g><g transform="translate(734 60)"><path d="M11.1 6.2C7.5 12.6 -7 12.5 -10.6 6.1C-14.3 -0.4 -7.1 -13.1 0.1 -13C7.3 -13 14.6 -0.2 11.1 6.2Z" fill="#E3CC0D"></path></g></g></svg>