<svg id="visual" viewBox="0 0 960 540" width="960" height="540" xmlns="http://www.w3.org/2000/svg" xmlns:xlink="http://www.w3.org/1999/xlink" version="1.1"><rect x="0" y="0" width="960" height="540" fill="#E3E2E4"></rect><path d="M487 540L367 540L367 513L298 513L298 486L305 486L305 459L327 459L327 432L444 432L444 405L562 405L562 378L359 378L359 351L422 351L422 324L525 324L525 297L356 297L356 270L418 270L418 243L528 243L528 216L423 216L423 189L458 189L458 162L295 162L295 135L325 135L325 108L490 108L490 81L496 81L496 54L302 54L302 27L352 27L352 0L960 0L960 27L960 27L960 54L960 54L960 81L960 81L960 108L960 108L960 135L960 135L960 162L960 162L960 189L960 189L960 216L960 216L960 243L960 243L960 270L960 270L960 297L960 297L960 324L960 324L960 351L960 351L960 378L960 378L960 405L960 405L960 432L960 432L960 459L960 459L960 486L960 486L960 513L960 513L960 540L960 540Z" fill="#160e2d"></path><path d="M411 540L416 540L416 513L491 513L491 486L349 486L349 459L570 459L570 432L508 432L508 405L403 405L403 378L400 378L400 351L516 351L516 324L530 324L530 297L570 297L570 270L525 270L525 243L507 243L507 216L371 216L371 189L468 189L468 162L458 162L458 135L544 135L544 108L502 108L502 81L423 81L423 54L353 54L353 27L392 27L392 0L960 0L960 27L960 27L960 54L960 54L960 81L960 81L960 108L960 108L960 135L960 135L960 162L960 162L960 189L960 189L960 216L960 216L960 243L960 243L960 270L960 270L960 297L960 297L960 324L960 324L960 351L960 351L960 378L960 378L960 405L960 405L960 432L960 432L960 459L960 459L960 486L960 486L960 513L960 513L960 540L960 540Z" fill="#23173b"></path><path d="M516 540L589 540L589 513L611 513L611 486L472 486L472 459L537 459L537 432L417 432L417 405L503 405L503 378L482 378L482 351L502 351L502 324L551 324L551 297L606 297L606 270L593 270L593 243L406 243L406 216L427 216L427 189L487 189L487 162L455 162L455 135L418 135L418 108L493 108L493 81L560 81L560 54L514 54L514 27L622 27L622 0L960 0L960 27L960 27L960 54L960 54L960 81L960 81L960 108L960 108L960 135L960 135L960 162L960 162L960 189L960 189L960 216L960 216L960 243L960 243L960 270L960 270L960 297L960 297L960 324L960 324L960 351L960 351L960 378L960 378L960 405L960 405L960 432L960 432L960 459L960 459L960 486L960 486L960 513L960 513L960 540L960 540Z" fill="#321f49"></path><path d="M619 540L492 540L492 513L450 513L450 486L603 486L603 459L617 459L617 432L549 432L549 405L543 405L543 378L474 378L474 351L542 351L542 324L543 324L543 297L630 297L630 270L561 270L561 243L487 243L487 216L474 216L474 189L469 189L469 162L580 162L580 135L452 135L452 108L639 108L639 81L574 81L574 54L445 54L445 27L641 27L641 0L960 0L960 27L960 27L960 54L960 54L960 81L960 81L960 108L960 108L960 135L960 135L960 162L960 162L960 189L960 189L960 216L960 216L960 243L960 243L960 270L960 270L960 297L960 297L960 324L960 324L960 351L960 351L960 378L960 378L960 405L960 405L960 432L960 432L960 459L960 459L960 486L960 486L960 513L960 513L960 540L960 540Z" fill="#422858"></path><path d="M510 540L609 540L609 513L689 513L689 486L644 486L644 459L546 459L546 432L579 432L579 405L569 405L569 378L569 378L569 351L658 351L658 324L595 324L595 297L549 297L549 270L581 270L581 243L686 243L686 216L597 216L597 189L587 189L587 162L509 162L509 135L512 135L512 108L706 108L706 81L702 81L702 54L504 54L504 27L540 27L540 0L960 0L960 27L960 27L960 54L960 54L960 81L960 81L960 108L960 108L960 135L960 135L960 162L960 162L960 189L960 189L960 216L960 216L960 243L960 243L960 270L960 270L960 297L960 297L960 324L960 324L960 351L960 351L960 378L960 378L960 405L960 405L960 432L960 432L960 459L960 459L960 486L960 486L960 513L960 513L960 540L960 540Z" fill="#533066"></path><path d="M655 540L683 540L683 513L666 513L666 486L576 486L576 459L731 459L731 432L564 432L564 405L554 405L554 378L663 378L663 351L566 351L566 324L585 324L585 297L620 297L620 270L723 270L723 243L715 243L715 216L653 216L653 189L696 189L696 162L627 162L627 135L610 135L610 108L580 108L580 81L698 81L698 54L637 54L637 27L586 27L586 0L960 0L960 27L960 27L960 54L960 54L960 81L960 81L960 108L960 108L960 135L960 135L960 162L960 162L960 189L960 189L960 216L960 216L960 243L960 243L960 270L960 270L960 297L960 297L960 324L960 324L960 351L960 351L960 378L960 378L960 405L960 405L960 432L960 432L960 459L960 459L960 486L960 486L960 513L960 513L960 540L960 540Z" fill="#663974"></path><path d="M719 540L732 540L732 513L733 513L733 486L698 486L698 459L611 459L611 432L681 432L681 405L757 405L757 378L746 378L746 351L615 351L615 324L694 324L694 297L774 297L774 270L619 270L619 243L699 243L699 216L619 216L619 189L614 189L614 162L686 162L686 135L660 135L660 108L678 108L678 81L718 81L718 54L644 54L644 27L650 27L650 0L960 0L960 27L960 27L960 54L960 54L960 81L960 81L960 108L960 108L960 135L960 135L960 162L960 162L960 189L960 189L960 216L960 216L960 243L960 243L960 270L960 270L960 297L960 297L960 324L960 324L960 351L960 351L960 378L960 378L960 405L960 405L960 432L960 432L960 459L960 459L960 486L960 486L960 513L960 513L960 540L960 540Z" fill="#794182"></path><path d="M802 540L713 540L713 513L767 513L767 486L687 486L687 459L718 459L718 432L768 432L768 405L786 405L786 378L799 378L799 351L704 351L704 324L697 324L697 297L768 297L768 270L685 270L685 243L778 243L778 216L754 216L754 189L699 189L699 162L668 162L668 135L683 135L683 108L682 108L682 81L700 81L700 54L733 54L733 27L776 27L776 0L960 0L960 27L960 27L960 54L960 54L960 81L960 81L960 108L960 108L960 135L960 135L960 162L960 162L960 189L960 189L960 216L960 216L960 243L960 243L960 270L960 270L960 297L960 297L960 324L960 324L960 351L960 351L960 378L960 378L960 405L960 405L960 432L960 432L960 459L960 459L960 486L960 486L960 513L960 513L960 540L960 540Z" fill="#8c4a8f"></path><path d="M845 540L721 540L721 513L805 513L805 486L733 486L733 459L736 459L736 432L749 432L749 405L745 405L745 378L800 378L800 351L712 351L712 324L733 324L733 297L810 297L810 270L738 270L738 243L743 243L743 216L723 216L723 189L731 189L731 162L752 162L752 135L732 135L732 108L734 108L734 81L803 81L803 54L848 54L848 27L786 27L786 0L960 0L960 27L960 27L960 54L960 54L960 81L960 81L960 108L960 108L960 135L960 135L960 162L960 162L960 189L960 189L960 216L960 216L960 243L960 243L960 270L960 270L960 297L960 297L960 324L960 324L960 351L960 351L960 378L960 378L960 405L960 405L960 432L960 432L960 459L960 459L960 486L960 486L960 513L960 513L960 540L960 540Z" fill="#a1529c"></path><path d="M793 540L780 540L780 513L818 513L818 486L795 486L795 459L762 459L762 432L801 432L801 405L834 405L834 378L792 378L792 351L888 351L888 324L795 324L795 297L854 297L854 270L854 270L854 243L823 243L823 216L860 216L860 189L769 189L769 162L856 162L856 135L860 135L860 108L869 108L869 81L822 81L822 54L765 54L765 27L831 27L831 0L960 0L960 27L960 27L960 54L960 54L960 81L960 81L960 108L960 108L960 135L960 135L960 162L960 162L960 189L960 189L960 216L960 216L960 243L960 243L960 270L960 270L960 297L960 297L960 324L960 324L960 351L960 351L960 378L960 378L960 405L960 405L960 432L960 432L960 459L960 459L960 486L960 486L960 513L960 513L960 540L960 540Z" fill="#b65ba9"></path><path d="M817 540L884 540L884 513L843 513L843 486L834 486L834 459L913 459L913 432L906 432L906 405L858 405L858 378L862 378L862 351L826 351L826 324L878 324L878 297L851 297L851 270L870 270L870 243L811 243L811 216L812 216L812 189L891 189L891 162L877 162L877 135L852 135L852 108L874 108L874 81L859 81L859 54L868 54L868 27L882 27L882 0L960 0L960 27L960 27L960 54L960 54L960 81L960 81L960 108L960 108L960 135L960 135L960 162L960 162L960 189L960 189L960 216L960 216L960 243L960 243L960 270L960 270L960 297L960 297L960 324L960 324L960 351L960 351L960 378L960 378L960 405L960 405L960 432L960 432L960 459L960 459L960 486L960 486L960 513L960 513L960 540L960 540Z" fill="#cc63b5"></path><path d="M909 540L924 540L924 513L957 513L957 486L961 486L961 459L884 459L884 432L866 432L866 405L912 405L912 378L960 378L960 351L867 351L867 324L935 324L935 297L898 297L898 270L914 270L914 243L905 243L905 216L878 216L878 189L868 189L868 162L882 162L882 135L957 135L957 108L861 108L861 81L926 81L926 54L901 54L901 27L883 27L883 0L960 0L960 27L960 27L960 54L960 54L960 81L960 81L960 108L960 108L960 135L960 135L960 162L960 162L960 189L960 189L960 216L960 216L960 243L960 243L960 270L960 270L960 297L960 297L960 324L960 324L960 351L960 351L960 378L960 378L960 405L960 405L960 432L960 432L960 459L960 459L960 486L960 486L960 513L960 513L960 540L960 540Z" fill="#e36cc0"></path></svg>